# xmcd
#
# Track frame offsets:
#	150
#	48476
#	77008
#	93534
#	111618
#	137501
#
# Disc length: 2323 seconds
#
# Revision: 1
# Processed by: cddbd v1.4PL0 Copyright (c) Steve Scherf et al.
# Submitted via: audiograbber 1.82.02
#
DISCID=4d091106
DTITLE=Taste - Live  Taste
DYEAR=1900
DGENRE=blues
TTITLE0=Live  Taste - Catfish
TTITLE1=Live Taste - Gamblin-Blues
TTITLE2=Live  TASTE - I Feel So Good (part 1)
TTITLE3=Live Taste -  I Feel So Good    part2
TTITLE4=Live TASTE - Same Old Story
TTITLE5=Live Taste - Sugar Mama
EXTD=
EXTT0=
EXTT1=
EXTT2=
EXTT3=
EXTT4=
EXTT5=
PLAYORDER=
